#Comment line ignore any data following # character 
#Hierarchical Translation and Rotation (.htr) file 
[Header]	
#Header keywords are followed by a single value 
FileType HTR		#Single word string
DataType HTRS		#Translation followed by rotation and scale data
FileVersion 1		#integer
NumSegments 84		#integer
NumFrames 2		#integer
DataFrameRate 30		#integer, data frame rate in this file
EulerRotationOrder ZYX
CalibrationUnits mm
RotationUnits Degrees
GlobalAxisofGravity Y
BoneLengthAxis Y
ScaleFactor 1.00
[SegmentNames&Hierarchy]
#CHILD	PARENT
MASTER GLOBAL
root MASTER
chest root
L_mid_tent01 root
R_mid_tent01 root
spine01 root
Bip01_Neck chest
L_humerus chest
R_humerus chest
weapon_bone chest
Bip01_Head Bip01_Neck
eye_left_bone Bip01_Head
eye_right_bone Bip01_Head
L_forearm L_humerus
L_front_hand L_forearm
L_weapon_bone L_forearm
L_front_hand01_01 L_front_hand
L_front_hand02_01 L_front_hand
L_front_hand03_01 L_front_hand
L_front_hand01_02 L_front_hand01_01
L_front_hand02_02 L_front_hand02_01
L_front_hand03_02 L_front_hand03_01
R_forearm R_humerus
R_front_hand R_forearm
R_weapon_bone R_forearm
R_front_hand01_01 R_front_hand
R_front_hand02_01 R_front_hand
R_front_hand03_01 R_front_hand
R_front_hand01_02 R_front_hand01_01
R_front_hand02_02 R_front_hand02_01
R_front_hand03_02 R_front_hand03_01
null_rope01_connect L_mid_tent01
Rope1_Seg01 null_rope01_connect
Rope1_Seg02 Rope1_Seg01
Rope1_Seg03 Rope1_Seg02
Rope1_Seg04 Rope1_Seg03
Rope1_Seg05 Rope1_Seg04
Rope1_Seg06 Rope1_Seg05
Rope1_Seg07 Rope1_Seg06
Rope1_Seg09 Rope1_Seg07
L_mid_hand01 Rope1_Seg09
L_mid_hand02 Rope1_Seg09
L_mid_hand03 Rope1_Seg09
null_rope02_connect R_mid_tent01
Rope2_Seg01 null_rope02_connect
Rope2_Seg02 Rope2_Seg01
Rope2_Seg03 Rope2_Seg02
Rope2_Seg04 Rope2_Seg03
Rope2_Seg05 Rope2_Seg04
Rope2_Seg06 Rope2_Seg05
Rope2_Seg07 Rope2_Seg06
Rope2_Seg09 Rope2_Seg07
R_mid_hand01 Rope2_Seg09
R_mid_hand02 Rope2_Seg09
R_mid_hand03 Rope2_Seg09
spine02 spine01
spine03 spine02
pelvis spine03
null_rope03_connect pelvis
null_rope04_connect pelvis
Rope3_Seg01 null_rope03_connect
Rope3_Seg02 Rope3_Seg01
Rope3_Seg03 Rope3_Seg02
Rope3_Seg04 Rope3_Seg03
Rope3_Seg05 Rope3_Seg04
Rope3_Seg06 Rope3_Seg05
Rope3_Seg07 Rope3_Seg06
Rope3_Seg08 Rope3_Seg07
Rope3_Seg09 Rope3_Seg08
R_rear_hand01 Rope3_Seg09
R_rear_hand02 Rope3_Seg09
R_rear_hand03 Rope3_Seg09
Rope4_Seg01 null_rope04_connect
Rope4_Seg02 Rope4_Seg01
Rope4_Seg03 Rope4_Seg02
Rope4_Seg04 Rope4_Seg03
Rope4_Seg05 Rope4_Seg04
Rope4_Seg06 Rope4_Seg05
Rope4_Seg07 Rope4_Seg06
Rope4_Seg08 Rope4_Seg07
Rope4_Seg09 Rope4_Seg08
L_rear_hand01 Rope4_Seg09
L_rear_hand02 Rope4_Seg09
L_rear_hand03 Rope4_Seg09
[BasePosition]
#SegmentName Tx, Ty, Tz, Rx, Ry, Rz, BoneLength
MASTER 0.000000 0.000000 0.000000 -90.000000 0.000000 0.000000 10.000000 
root 0.000000 0.000000 0.000000 0.000000 0.000000 0.000000 10.000000 
chest 0.000000 0.000000 0.000000 0.000000 0.000000 0.000000 10.000000 
L_mid_tent01 0.000000 0.000000 0.000000 0.000000 0.000000 0.000000 10.000000 
R_mid_tent01 0.000000 0.000000 0.000000 0.000000 0.000000 0.000000 10.000000 
spine01 0.000000 0.000000 0.000000 0.000000 0.000000 0.000000 10.000000 
Bip01_Neck 0.000000 0.000000 0.000000 0.000000 0.000000 0.000000 10.000000 
L_humerus 0.000000 0.000000 0.000000 0.000000 0.000000 0.000000 10.000000 
R_humerus 0.000000 0.000000 0.000000 0.000000 0.000000 0.000000 10.000000 
weapon_bone 0.000000 0.000000 0.000000 0.000000 0.000000 0.000000 10.000000 
Bip01_Head 0.000000 0.000000 0.000000 0.000000 0.000000 0.000000 10.000000 
eye_left_bone 0.000000 0.000000 0.000000 0.000000 0.000000 0.000000 10.000000 
eye_right_bone 0.000000 0.000000 0.000000 0.000000 0.000000 0.000000 10.000000 
L_forearm 0.000000 0.000000 0.000000 0.000000 0.000000 0.000000 10.000000 
L_front_hand 0.000000 0.000000 0.000000 0.000000 0.000000 0.000000 10.000000 
L_weapon_bone 0.000000 0.000000 0.000000 0.000000 0.000000 0.000000 10.000000 
L_front_hand01_01 0.000000 0.000000 0.000000 0.000000 0.000000 0.000000 10.000000 
L_front_hand02_01 0.000000 0.000000 0.000000 0.000000 0.000000 0.000000 10.000000 
L_front_hand03_01 0.000000 0.000000 0.000000 0.000000 0.000000 0.000000 10.000000 
L_front_hand01_02 0.000000 0.000000 0.000000 0.000000 0.000000 0.000000 10.000000 
L_front_hand02_02 0.000000 0.000000 0.000000 0.000000 0.000000 0.000000 10.000000 
L_front_hand03_02 0.000000 0.000000 0.000000 0.000000 0.000000 0.000000 10.000000 
R_forearm 0.000000 0.000000 0.000000 0.000000 0.000000 0.000000 10.000000 
R_front_hand 0.000000 0.000000 0.000000 0.000000 0.000000 0.000000 10.000000 
R_weapon_bone 0.000000 0.000000 0.000000 0.000000 0.000000 0.000000 10.000000 
R_front_hand01_01 0.000000 0.000000 0.000000 0.000000 0.000000 0.000000 10.000000 
R_front_hand02_01 0.000000 0.000000 0.000000 0.000000 0.000000 0.000000 10.000000 
R_front_hand03_01 0.000000 0.000000 0.000000 0.000000 0.000000 0.000000 10.000000 
R_front_hand01_02 0.000000 0.000000 0.000000 0.000000 0.000000 0.000000 10.000000 
R_front_hand02_02 0.000000 0.000000 0.000000 0.000000 0.000000 0.000000 10.000000 
R_front_hand03_02 0.000000 0.000000 0.000000 0.000000 0.000000 0.000000 10.000000 
null_rope01_connect 0.000000 0.000000 0.000000 0.000000 0.000000 0.000000 10.000000 
Rope1_Seg01 0.000000 0.000000 0.000000 0.000000 0.000000 0.000000 10.000000 
Rope1_Seg02 0.000000 0.000000 0.000000 0.000000 0.000000 0.000000 10.000000 
Rope1_Seg03 0.000000 0.000000 0.000000 0.000000 0.000000 0.000000 10.000000 
Rope1_Seg04 0.000000 0.000000 0.000000 0.000000 0.000000 0.000000 10.000000 
Rope1_Seg05 0.000000 0.000000 0.000000 0.000000 0.000000 0.000000 10.000000 
Rope1_Seg06 0.000000 0.000000 0.000000 0.000000 0.000000 0.000000 10.000000 
Rope1_Seg07 0.000000 0.000000 0.000000 0.000000 0.000000 0.000000 10.000000 
Rope1_Seg09 0.000000 0.000000 0.000000 0.000000 0.000000 0.000000 10.000000 
L_mid_hand01 0.000000 0.000000 0.000000 0.000000 0.000000 0.000000 10.000000 
L_mid_hand02 0.000000 0.000000 0.000000 0.000000 0.000000 0.000000 10.000000 
L_mid_hand03 0.000000 0.000000 0.000000 0.000000 0.000000 0.000000 10.000000 
null_rope02_connect 0.000000 0.000000 0.000000 0.000000 0.000000 0.000000 10.000000 
Rope2_Seg01 0.000000 0.000000 0.000000 0.000000 0.000000 0.000000 10.000000 
Rope2_Seg02 0.000000 0.000000 0.000000 0.000000 0.000000 0.000000 10.000000 
Rope2_Seg03 0.000000 0.000000 0.000000 0.000000 0.000000 0.000000 10.000000 
Rope2_Seg04 0.000000 0.000000 0.000000 0.000000 0.000000 0.000000 10.000000 
Rope2_Seg05 0.000000 0.000000 0.000000 0.000000 0.000000 0.000000 10.000000 
Rope2_Seg06 0.000000 0.000000 0.000000 0.000000 0.000000 0.000000 10.000000 
Rope2_Seg07 0.000000 0.000000 0.000000 0.000000 0.000000 0.000000 10.000000 
Rope2_Seg09 0.000000 0.000000 0.000000 0.000000 0.000000 0.000000 10.000000 
R_mid_hand01 0.000000 0.000000 0.000000 0.000000 0.000000 0.000000 10.000000 
R_mid_hand02 0.000000 0.000000 0.000000 0.000000 0.000000 0.000000 10.000000 
R_mid_hand03 0.000000 0.000000 0.000000 0.000000 0.000000 0.000000 10.000000 
spine02 0.000000 0.000000 0.000000 0.000000 0.000000 0.000000 10.000000 
spine03 0.000000 0.000000 0.000000 0.000000 0.000000 0.000000 10.000000 
pelvis 0.000000 0.000000 0.000000 0.000000 0.000000 0.000000 10.000000 
null_rope03_connect 0.000000 0.000000 0.000000 0.000000 0.000000 0.000000 10.000000 
null_rope04_connect 0.000000 0.000000 0.000000 0.000000 0.000000 0.000000 10.000000 
Rope3_Seg01 0.000000 0.000000 0.000000 0.000000 0.000000 0.000000 10.000000 
Rope3_Seg02 0.000000 0.000000 0.000000 0.000000 0.000000 0.000000 10.000000 
Rope3_Seg03 0.000000 0.000000 0.000000 0.000000 0.000000 0.000000 10.000000 
Rope3_Seg04 0.000000 0.000000 0.000000 0.000000 0.000000 0.000000 10.000000 
Rope3_Seg05 0.000000 0.000000 0.000000 0.000000 0.000000 0.000000 10.000000 
Rope3_Seg06 0.000000 0.000000 0.000000 0.000000 0.000000 0.000000 10.000000 
Rope3_Seg07 0.000000 0.000000 0.000000 0.000000 0.000000 0.000000 10.000000 
Rope3_Seg08 0.000000 0.000000 0.000000 0.000000 0.000000 0.000000 10.000000 
Rope3_Seg09 0.000000 0.000000 0.000000 0.000000 0.000000 0.000000 10.000000 
R_rear_hand01 0.000000 0.000000 0.000000 0.000000 0.000000 0.000000 10.000000 
R_rear_hand02 0.000000 0.000000 0.000000 0.000000 0.000000 0.000000 10.000000 
R_rear_hand03 0.000000 0.000000 0.000000 0.000000 0.000000 0.000000 10.000000 
Rope4_Seg01 0.000000 0.000000 0.000000 0.000000 0.000000 0.000000 10.000000 
Rope4_Seg02 0.000000 0.000000 0.000000 0.000000 0.000000 0.000000 10.000000 
Rope4_Seg03 0.000000 0.000000 0.000000 0.000000 0.000000 0.000000 10.000000 
Rope4_Seg04 0.000000 0.000000 0.000000 0.000000 0.000000 0.000000 10.000000 
Rope4_Seg05 0.000000 0.000000 0.000000 0.000000 0.000000 0.000000 10.000000 
Rope4_Seg06 0.000000 0.000000 0.000000 0.000000 0.000000 0.000000 10.000000 
Rope4_Seg07 0.000000 0.000000 0.000000 0.000000 0.000000 0.000000 10.000000 
Rope4_Seg08 0.000000 0.000000 0.000000 0.000000 0.000000 0.000000 10.000000 
Rope4_Seg09 0.000000 0.000000 0.000000 0.000000 0.000000 0.000000 10.000000 
L_rear_hand01 0.000000 0.000000 0.000000 0.000000 0.000000 0.000000 10.000000 
L_rear_hand02 0.000000 0.000000 0.000000 0.000000 0.000000 0.000000 10.000000 
L_rear_hand03 0.000000 0.000000 0.000000 0.000000 0.000000 0.000000 10.000000 
#Beginning of Data. Separated by tabs
#Fr	Tx	Ty	Tz	Rx	Ry	Rz	SF
[MASTER]
21 0.000000 0.000000 0.000000 0.001660 0.001660 0.001660 0.000000
22 0.000000 0.000000 0.000000 0.001660 0.001660 0.001660 0.000000
[root]
21 -25.603958 -62.720535 1487.787476 -91.781158 -24.912788 -90.251686 1489.329102
22 -19.851425 -62.730259 1492.614502 -91.768356 -25.281672 -90.239632 1494.063965
[chest]
21 -84.512650 -34.090519 0.000000 -5.286271 0.188672 -179.416260 91.129311
22 -84.512650 -34.090519 0.000000 -5.177152 0.740724 -179.020218 91.129311
[L_mid_tent01]
21 27.299572 22.177437 -249.917984 3.862630 36.229198 81.347610 252.380859
22 27.299566 22.177446 -249.917984 4.241071 36.189697 81.993767 252.380859
[R_mid_tent01]
21 23.228794 24.509907 226.238495 163.320343 -45.984917 84.629028 228.744751
22 23.228794 24.509907 226.238495 160.432037 -47.061241 87.899773 228.744751
[spine01]
21 -0.361383 -0.195265 0.000000 0.661533 0.434473 14.793592 0.410763
22 -0.361383 -0.195265 0.000000 0.722909 0.437568 15.035855 0.410763
[Bip01_Neck]
21 165.484543 71.581718 0.000119 175.896118 1.177290 24.871183 180.302734
22 165.484543 71.581718 0.000119 175.896118 1.177290 24.871183 180.302734
[L_humerus]
21 -13.983130 -135.272980 -120.471481 -178.998688 -2.714367 -86.022354 181.680161
22 -13.983130 -135.272980 -120.471481 -178.281860 1.886976 -87.432571 181.680161
[R_humerus]
21 -13.983309 -135.273102 125.287651 -177.927048 -1.023230 -88.291855 184.909012
22 -13.983309 -135.273102 125.287651 -177.927063 -1.023400 -88.291924 184.909012
[weapon_bone]
21 235.964890 -300.705902 0.000000 0.000000 -89.951546 -128.212341 382.234833
22 235.964890 -300.705902 0.000000 0.000000 -89.951546 -128.212341 382.234833
[Bip01_Head]
21 260.497375 112.105095 -1.681826 2.290412 5.505714 -60.229477 283.600525
22 260.969696 110.403580 -2.311748 2.266411 5.686941 -61.415642 283.371613
[eye_left_bone]
21 -24.626970 125.451866 -64.772606 0.000000 -90.000000 -99.840431 143.318359
22 -24.626970 125.451866 -64.772606 0.000000 -90.000000 -99.840431 143.318359
[eye_right_bone]
21 -24.626970 125.451866 64.327362 0.000000 -89.960434 80.159386 143.117676
22 -24.626970 125.451866 64.327362 0.000000 -89.960434 80.159386 143.117676
[L_forearm]
21 322.776093 0.000000 -0.000119 0.000671 0.002249 -56.791309 322.776093
22 322.776093 0.000000 -0.000119 0.000556 0.002280 -62.585030 322.776093
[L_front_hand]
21 241.149185 -0.042021 -3.300071 -179.697128 -2.249508 0.866331 241.171753
22 241.149185 -0.042021 -3.300071 -179.680222 -2.243654 0.509843 241.171753
[L_weapon_bone]
21 156.183838 0.000000 0.000000 0.002052 0.001139 31.932198 156.183838
22 156.183838 0.000000 0.000000 0.002083 0.001082 35.124397 156.183838
[L_front_hand01_01]
21 86.095154 20.947098 -0.655860 0.397730 -0.445126 -3.868197 88.609184
22 86.095154 20.947098 -0.655860 0.398230 -0.444680 -3.996867 88.609184
[L_front_hand02_01]
21 86.935165 -11.437475 24.513514 116.942528 2.951206 1.153172 91.046425
22 86.935165 -11.437475 24.513514 116.945137 3.078270 1.218493 91.046425
[L_front_hand03_01]
21 86.637497 -14.123976 -20.424902 -118.393776 -3.994838 -0.513993 90.126129
22 86.637497 -14.123976 -20.424902 -118.398964 -4.117304 -0.448555 90.126129
[L_front_hand01_02]
21 71.020905 -0.000179 0.000030 0.001534 0.001777 -8.378850 71.020905
22 71.020905 -0.000179 0.000030 0.001534 0.001777 -8.378850 71.020905
[L_front_hand02_02]
21 71.020927 -0.000119 0.000060 0.001534 0.001777 -8.378850 71.020927
22 71.020927 -0.000119 0.000060 0.001534 0.001777 -8.378850 71.020927
[L_front_hand03_02]
21 71.020905 -0.000060 0.000060 0.001534 0.001777 -8.378850 71.020905
22 71.020905 -0.000060 0.000060 0.001534 0.001777 -8.378850 71.020905
[R_forearm]
21 322.776428 -0.000060 0.000030 0.159981 -0.142267 -49.491119 322.776428
22 322.776428 -0.000060 0.000030 0.158536 -0.143875 -48.333885 322.776428
[R_front_hand]
21 238.847015 -0.006795 2.210259 -0.556124 1.635325 -7.547172 238.857239
22 238.847015 -0.006795 2.210259 -0.679046 1.587780 -11.943844 238.857239
[R_weapon_bone]
21 155.664093 0.002503 -0.000030 0.002876 0.002297 -130.830246 155.664078
22 155.664093 0.002503 -0.000030 0.002809 0.002379 -134.121277 155.664078
[R_front_hand01_01]
21 87.624611 14.231146 22.918642 -116.944359 2.971384 -1.053725 91.683487
22 87.624611 14.231146 22.918642 -116.946678 3.071133 -1.102894 91.683487
[R_front_hand02_01]
21 89.356956 14.367283 -19.491137 118.401825 -3.737033 0.889964 92.579636
22 89.356956 14.367283 -19.491137 118.405075 -3.834200 0.836416 92.579636
[R_front_hand03_01]
21 87.286232 -22.307278 -0.143439 -0.386877 -0.236753 3.641481 90.091743
22 87.286232 -22.307278 -0.143439 -0.387034 -0.234760 3.743741 90.091743
[R_front_hand01_02]
21 71.020905 0.000060 0.000119 0.001777 0.001534 8.377220 71.020905
22 71.020905 0.000060 0.000119 0.001777 0.001534 8.377220 71.020905
[R_front_hand02_02]
21 71.020844 -0.000030 -0.000119 0.001777 0.001534 8.377220 71.020836
22 71.020844 -0.000030 -0.000119 0.001777 0.001534 8.377220 71.020836
[R_front_hand03_02]
21 71.020905 0.000000 0.000030 0.001777 0.001534 8.377220 71.020905
22 71.020905 0.000000 0.000030 0.001777 0.001534 8.377220 71.020905
[null_rope01_connect]
21 328.732483 0.000000 -0.000238 -140.272171 -51.713566 175.190170 328.732483
22 328.732483 0.000000 -0.000238 -139.911224 -51.734493 174.683395 328.732483
[Rope1_Seg01]
21 0.000068 0.000000 0.000000 125.849815 55.243187 152.694519 0.000068
22 0.000064 0.000000 0.000000 110.781395 56.897320 132.695007 0.000064
[Rope1_Seg02]
21 139.999863 -0.000179 0.000000 -4.264594 -21.097532 23.337906 139.999863
22 139.999863 -0.000179 0.000000 -2.744331 -15.155276 20.685316 139.999863
[Rope1_Seg03]
21 139.999924 0.000060 -0.000060 -2.611519 -16.449427 20.769987 139.999924
22 139.999924 0.000060 -0.000060 0.569236 -9.341775 17.124117 139.999924
[Rope1_Seg04]
21 139.999924 -0.000060 -0.000119 -2.654327 -10.439864 9.254791 139.999924
22 139.999924 -0.000060 -0.000119 -1.316941 -9.091013 9.364901 139.999924
[Rope1_Seg05]
21 139.999832 0.000119 -0.000060 -7.779096 -9.188033 2.756269 139.999832
22 139.999832 0.000119 -0.000060 -8.548896 -11.360032 3.948854 139.999832
[Rope1_Seg06]
21 139.999954 0.000119 -0.000060 -7.425098 -6.288534 1.109982 139.999954
22 139.999954 0.000119 -0.000060 -7.809573 -7.198262 1.650962 139.999954
[Rope1_Seg07]
21 139.999985 0.000060 0.000000 -5.498190 -3.947881 0.567835 139.999985
22 139.999985 0.000060 0.000000 -5.754854 -4.310137 0.738730 139.999985
[Rope1_Seg09]
21 121.602913 0.000119 -0.000089 -89.790619 -1.359656 0.847385 121.602913
22 121.602913 0.000119 -0.000089 -89.790619 -1.359656 0.847385 121.602913
[L_mid_hand01]
21 103.859421 1.038730 8.195221 130.287537 -67.456871 -38.590019 104.187431
22 103.859421 1.038730 8.195221 129.566071 -67.090355 -37.805813 104.187431
[L_mid_hand02]
21 105.572853 -4.139662 -10.864139 -168.769424 43.376186 -73.275803 106.211075
22 105.572853 -4.139662 -10.864139 -168.332123 43.282440 -72.638626 106.211075
[L_mid_hand03]
21 104.641464 17.579376 -3.913581 -6.064593 17.792385 74.715065 106.179977
22 104.641464 17.579376 -3.913581 -6.216089 17.742802 74.225273 106.179977
[null_rope02_connect]
21 328.732849 0.000179 -0.000119 -126.452881 43.500328 16.453030 328.732849
22 328.732849 0.000179 -0.000119 -126.117149 41.684753 18.231487 328.732849
[Rope2_Seg01]
21 0.000095 0.000153 0.000042 -83.683342 43.687447 3.477368 0.000185
22 0.000095 0.000153 0.000045 -71.201088 35.638496 10.152703 0.000185
[Rope2_Seg02]
21 139.999741 -0.000060 -0.000119 3.735538 -21.066893 2.165925 139.999756
22 139.999741 -0.000060 -0.000119 -0.640471 -10.962075 5.237070 139.999756
[Rope2_Seg03]
21 140.000107 0.000030 0.000000 0.347953 -29.918991 4.127956 140.000107
22 140.000107 0.000030 0.000000 -2.836307 -22.061235 12.329299 140.000107
[Rope2_Seg04]
21 139.999802 0.000000 -0.000060 -3.433980 -26.310730 7.093107 139.999802
22 139.999802 0.000000 -0.000060 -6.252664 -35.790596 20.367174 139.999802
[Rope2_Seg05]
21 139.999985 -0.000060 0.000119 -0.169142 -8.244061 3.951667 139.999985
22 139.999985 -0.000060 0.000119 -5.300873 -9.562438 -2.267560 139.999985
[Rope2_Seg06]
21 139.999893 -0.000030 -0.000119 -0.268024 -3.319523 1.281025 139.999893
22 139.999893 -0.000030 -0.000119 -1.912850 -2.260991 -1.004518 139.999893
[Rope2_Seg07]
21 139.999893 0.000060 -0.000060 -0.252193 -1.950532 0.673717 139.999893
22 139.999893 0.000060 -0.000060 -0.925693 -1.587494 -0.183376 139.999893
[Rope2_Seg09]
21 121.338966 0.000089 -0.000060 39.513882 -1.270148 -0.979987 121.338966
22 121.338966 0.000089 -0.000060 42.020378 -1.222150 -1.034533 121.338966
[R_mid_hand01]
21 104.680779 11.144459 -10.335981 -16.741573 45.081848 69.713097 105.778534
22 104.680779 11.144459 -10.335981 -17.029875 44.993057 69.303551 105.778534
[R_mid_hand02]
21 104.070427 2.443552 8.231699 49.927078 -67.333946 38.357830 104.424065
22 104.070427 2.443552 8.231699 50.395077 -67.095413 37.847004 104.424065
[R_mid_hand03]
21 106.028137 -11.221827 -5.996406 -176.947464 15.520543 -76.017647 106.788818
22 106.028137 -11.221827 -5.996406 -176.862457 15.507113 -75.702026 106.788818
[spine02]
21 129.756927 0.001550 0.000119 -0.220243 -4.067340 -4.767504 129.756927
22 129.756927 0.001550 0.000119 -0.228615 -4.062266 -4.630183 129.756927
[spine03]
21 78.694221 0.073242 -4.113761 0.824259 3.305646 -0.642524 78.801712
22 78.667419 0.077922 -4.375444 0.670754 3.640743 -2.149448 78.789047
[pelvis]
21 169.435242 0.051022 0.000000 0.001080 0.283638 -2.232294 169.435257
22 169.435242 0.051022 0.000000 -0.000564 0.120364 -2.116869 169.435257
[null_rope03_connect]
21 -1.257226 -2.466202 137.391083 -119.809631 -89.235107 -132.416046 137.418976
22 -1.257226 -2.466202 137.391083 -111.843849 -89.113091 -139.006882 137.418976
[null_rope04_connect]
21 -1.259640 -2.480268 -137.844437 -119.809631 -89.235107 -132.416046 137.872513
22 -1.259640 -2.480268 -137.844437 -111.843849 -89.113091 -139.006882 137.872513
[Rope3_Seg01]
21 0.000010 0.000017 -0.000068 177.184219 -45.170506 -20.395832 0.000071
22 0.000010 0.000016 -0.000064 174.364166 -40.336807 -14.157075 0.000066
[Rope3_Seg02]
21 139.999924 -0.000119 0.000060 -9.325350 2.906225 -7.800618 139.999924
22 139.999924 -0.000119 0.000060 -19.545179 4.515957 -11.605646 139.999924
[Rope3_Seg03]
21 139.999924 -0.000119 0.000119 -21.757069 7.031581 -12.503910 139.999924
22 139.999924 -0.000119 0.000119 -39.685642 14.582828 -14.902039 139.999924
[Rope3_Seg04]
21 139.999924 0.000119 0.000000 -27.781609 16.633339 -9.002992 139.999924
22 139.999924 0.000119 0.000000 -18.342781 21.318907 1.617584 139.999924
[Rope3_Seg05]
21 139.999924 -0.000238 0.000060 -29.482990 27.804632 -10.379261 139.999924
22 139.999924 -0.000238 0.000060 -29.076702 42.447006 -13.016056 139.999924
[Rope3_Seg06]
21 139.999893 -0.000119 -0.000060 -17.703911 50.376373 -3.531543 139.999893
22 139.999893 -0.000119 -0.000060 -2.501598 32.063107 3.004689 139.999893
[Rope3_Seg07]
21 139.999771 0.000060 -0.000119 1.582654 16.869301 4.652663 139.999771
22 139.999771 0.000060 -0.000119 1.205075 8.561635 1.961795 139.999771
[Rope3_Seg08]
21 139.999985 -0.000060 0.000000 1.365084 5.822165 1.586565 139.999985
22 139.999985 -0.000060 0.000000 1.049284 3.936903 0.819646 139.999985
[Rope3_Seg09]
21 90.185997 -0.000179 -0.000060 89.795494 -1.358474 -0.848592 90.185997
22 90.185997 -0.000179 -0.000060 141.058975 -1.360056 -0.844644 90.185997
[R_rear_hand01]
21 103.366196 -6.073594 -10.757982 -156.049316 6.070419 -2.795869 104.101845
22 103.366196 -6.073594 -10.757982 -156.049316 6.070419 -2.795869 104.101845
[R_rear_hand02]
21 100.509819 12.039542 -7.992327 -38.708435 1.958051 5.461186 101.543350
22 100.509819 12.039542 -7.992327 -38.708435 1.958051 5.461186 101.543350
[R_rear_hand03]
21 101.539970 5.215704 5.435467 84.307625 -2.361032 4.099037 101.819031
22 101.539970 5.215704 5.435467 84.307625 -2.361033 4.099038 101.819031
[Rope4_Seg01]
21 -0.000016 -0.000030 -0.000119 42.441109 -53.419357 -88.733154 0.000123
22 -0.000017 -0.000035 -0.000121 39.882107 -48.958954 -85.713928 0.000127
[Rope4_Seg02]
21 139.999985 0.000060 0.000119 2.019835 -18.373194 6.317953 139.999985
22 139.999985 0.000060 0.000119 6.156998 -50.499084 20.569323 139.999985
[Rope4_Seg03]
21 139.999924 0.000000 -0.000238 15.520103 -38.112885 14.320988 139.999924
22 139.999924 0.000000 -0.000238 28.051498 -31.183100 16.401320 139.999924
[Rope4_Seg04]
21 139.999985 0.000000 0.000119 25.680851 -22.172880 17.865009 139.999985
22 139.999985 0.000000 0.000119 18.046509 -3.204697 19.339504 139.999985
[Rope4_Seg05]
21 139.999802 -0.000060 -0.000119 19.951338 -0.061939 29.304258 139.999802
22 139.999802 -0.000060 -0.000119 14.137152 9.014393 30.164637 139.999802
[Rope4_Seg06]
21 139.999924 0.000000 0.000060 8.586293 11.140079 26.277905 139.999924
22 139.999924 0.000000 0.000060 2.841414 7.575961 14.801000 139.999924
[Rope4_Seg07]
21 139.999802 0.000000 0.000000 0.894798 4.706388 9.861377 139.999802
22 139.999802 0.000000 0.000000 0.390110 3.734270 7.040462 139.999802
[Rope4_Seg08]
21 139.999924 0.000000 0.000119 -1.546029 2.323106 4.735792 139.999924
22 139.999924 0.000000 0.000119 -1.585656 2.008428 3.749036 139.999924
[Rope4_Seg09]
21 90.185791 0.000060 0.000060 -124.596886 2.228758 0.848157 90.185791
22 90.185791 0.000060 0.000060 -129.542557 2.227948 0.849384 90.185791
[L_rear_hand01]
21 101.696655 -8.392275 -7.654577 -38.728920 -1.268108 175.399002 102.329041
22 101.696655 -8.392275 -7.654577 -38.716747 -1.753716 174.792648 102.329041
[L_rear_hand02]
21 102.726799 -1.568258 5.773216 84.308762 1.266230 176.012085 102.900848
22 102.726799 -1.568258 5.773216 84.312981 2.043971 175.934570 102.900848
[L_rear_hand03]
21 104.552910 9.721220 -10.420293 -155.942017 -5.624124 -178.218872 105.519653
22 104.552910 9.721220 -10.420293 -156.018631 -5.942983 -177.497803 105.519653
